<?xml version="1.0" encoding="UTF-8"?>
<svg width="21px" height="20px" viewBox="0 0 21 20" version="1.1" xmlns="http://www.w3.org/2000/svg" xmlns:xlink="http://www.w3.org/1999/xlink"><link xmlns="" type="text/css" id="dark-mode" rel="stylesheet" href=""/><style xmlns="" type="text/css" id="dark-mode-custom-style"/>
    <!-- Generator: Sketch 52.2 (67145) - http://www.bohemiancoding.com/sketch -->
    <title>Santander logo</title>
    <desc>Created with Sketch.</desc>
    <defs>
        <polygon id="path-1" points="0 0 21 0 21 20 0 20"/>
    </defs>
    <g id="Advisory---Proposals" stroke="none" stroke-width="1" fill="none" fill-rule="evenodd">
        <g id="Proposals---Expanded" transform="translate(-150.000000, -5.000000)">
            <g id="Santander-logo" transform="translate(150.000000, 5.000000)">
                <mask id="mask-2" fill="white">
                    <use xlink:href="#path-1"/>
                </mask>
                <g id="Clip-2"/>
                <path d="M15.0508815,9.16065137 C15.019298,8.4399581 14.8180006,7.72497857 14.4454672,7.07894486 L11.1573559,1.37815446 C10.9065903,0.943529188 10.7334517,0.477668793 10.637179,0 L10.5001903,0.238072565 C9.68624857,1.64898581 9.68624857,3.38748691 10.4998097,4.79840015 L13.1303749,9.35910866 C13.9439361,10.7700219 13.9439361,12.508523 13.1303749,13.9194362 L12.9926251,14.1575088 C12.8963524,13.67984 12.7232138,13.2139796 12.4728287,12.7793543 L10.0644898,8.60413294 L8.52717125,5.93848205 C8.27640568,5.50385678 8.10326707,5.03799638 8.0069944,4.56032759 L7.86962509,4.79840015 C7.0587276,6.20474241 7.05606393,7.93600609 7.86163408,9.34425293 L7.86125356,9.34463384 L10.5001903,13.9194362 C11.3137514,15.3303495 11.3137514,17.0688506 10.5001903,18.4797638 L10.3624404,18.7178364 C10.2661678,18.2401676 10.0930292,17.7743072 9.84226358,17.3396819 L6.55453277,11.6392725 C6.11350499,10.8747738 5.91220759,10.0139034 5.94911845,9.1614132 C2.42926776,10.0817065 0,12.036187 0,14.2992096 C0,17.4474812 4.70099842,20 10.5001903,20 C16.2990016,20 21,17.4474812 21,14.2992096 C21,12.036187 18.5707322,10.0813256 15.0508815,9.16065137" id="Fill-1" fill="#EC0000" mask="url(#mask-2)"/>
            </g>
        </g>
    </g>
</svg>